<svg width="512" height="512" viewBox="0 0 512 512" xmlns="http://www.w3.org/2000/svg">
  <!-- Background circle -->
  <circle cx="256" cy="256" r="240" fill="#0f172a" stroke="#64748b" stroke-width="8"/>
  
  <!-- Medical cross -->
  <rect x="236" y="176" width="40" height="160" fill="#ffffff" rx="4"/>
  <rect x="176" y="236" width="160" height="40" fill="#ffffff" rx="4"/>
  
  <!-- Flame icon for burn assessment -->
  <path d="M256 120c-20 0-36 16-48 32-8 12-8 28 0 40 4 6 8 10 12 16 8 12 12 24 12 36 0 24-20 44-44 44s-44-20-44-44c0-12 4-24 12-36l12-16c8-12 8-28 0-40-12-16-28-32-48-32" 
        fill="#ef4444" stroke="#dc2626" stroke-width="2"/>
  
  <!-- Body outline for TBSA -->
  <ellipse cx="256" cy="380" rx="30" ry="60" fill="none" stroke="#94a3b8" stroke-width="3"/>
  <circle cx="256" cy="340" r="20" fill="none" stroke="#94a3b8" stroke-width="3"/>
  
  <!-- Small medical plus indicators -->
  <circle cx="320" cy="200" r="12" fill="#10b981"/>
  <rect x="316" y="192" width="8" height="16" fill="#ffffff"/>
  <rect x="312" y="196" width="16" height="8" fill="#ffffff"/>
  
  <circle cx="192" cy="200" r="12" fill="#10b981"/>
  <rect x="188" y="192" width="8" height="16" fill="#ffffff"/>
  <rect x="184" y="196" width="16" height="8" fill="#ffffff"/>
</svg>